<svg xmlns="http://www.w3.org/2000/svg" viewBox="0 0 30 12" fill="none">
  <path d="M14.933 0C17.556 0 20.139 0.528 22.683 1.583C25.228 2.639 27.489 4.222 29.467 6.333C29.733 6.6 29.867 6.911 29.867 7.267C29.867 7.622 29.733 7.933 29.467 8.2L26.4 11.2C26.156 11.444 25.872 11.578 25.55 11.6C25.228 11.622 24.933 11.533 24.667 11.333L20.8 8.4C20.622 8.267 20.489 8.111 20.4 7.933C20.311 7.756 20.267 7.556 20.267 7.333V3.533C19.422 3.267 18.556 3.056 17.667 2.9C16.778 2.744 15.867 2.667 14.933 2.667C14 2.667 13.089 2.744 12.2 2.9C11.311 3.056 10.444 3.267 9.6 3.533V7.333C9.6 7.556 9.556 7.756 9.467 7.933C9.378 8.111 9.244 8.267 9.067 8.4L5.2 11.333C4.933 11.533 4.639 11.622 4.317 11.6C3.994 11.578 3.711 11.444 3.467 11.2L0.4 8.2C0.133 7.933 0 7.622 0 7.267C0 6.911 0.133 6.6 0.4 6.333C2.356 4.222 4.611 2.639 7.167 1.583C9.722 0.528 12.311 0 14.933 0Z" fill="#000000"/>
</svg>
