<svg xmlns="http://www.w3.org/2000/svg" viewBox="0 0 1024 1024" fill="none">
  <path d="M486.314667 85.333333c118.186667 0 215.594667 66.986667 254.378666 177.109334l3.797334 10.88a39.893333 39.893333 0 0 1-21.376 49.578666 35.328 35.328 0 0 1-47.232-19.114666 2679.893333 2679.893333 0 0 1-7.936-20.010667c-29.056-75.648-96.768-120.405333-181.632-120.405333-109.226667 0-197.674667 91.733333-197.674667 204.885333 0 27.946667 5.418667 54.954667 15.658667 80 6.912 17.024 16 35.242667 28.714666 58.325333l3.712 6.741334c7.594667 13.568 31.957333 55.850667 39.68 69.674666l0.896 1.536c36.181333 64.64 59.733333 116.010667 76.458667 173.610667l1.024 3.456c22.058667 77.696 52.650667 108.245333 117.632 96.768 44.245333-7.765333 66.602667-35.370667 70.016-92.629333 0-1.194667-0.085333-2.432-0.170667-3.584a40.106667 40.106667 0 0 1 34.432-42.453334 35.754667 35.754667 0 0 1 40.618667 32.853334c0.426667 6.442667 0.64 10.453333 0.554667 11.946666-4.693333 95.488-49.792 156.16-132.864 170.794667-59.306667 10.453333-107.648-3.712-143.530667-39.466667-27.008-26.88-44.544-62.592-58.112-109.226666l-0.810667-2.858667c-14.506667-50.944-35.328-97.109333-68.309333-156.373333l-5.034667-8.917334c-9.642667-16.938667-32.341333-56.490667-38.528-67.669333l-3.328-5.930667a637.994667 637.994667 0 0 1-32.341333-66.090666A291.072 291.072 0 0 1 213.333333 368.256C213.333333 212.010667 335.530667 85.333333 486.314667 85.333333z m122.709333 275.882667l4.053333 8.234667a36.352 36.352 0 0 1-29.354666 52.224 35.413333 35.413333 0 0 1-34.474667-19.413334c-2.944-5.845333-4.48-8.917333-4.693333-9.216-3.754667-6.101333-9.685333-24.661333-27.477334-31.786666-7.850667-3.2-18.986667-1.877333-27.989333 1.792-13.653333 5.589333-22.656 21.034667-20.565333 38.485333 1.322667 10.965333 4.992 18.944 13.653333 29.738667l1.024 1.322666c2.816 3.413333 6.016 7.082667 10.496 11.904l18.944 20.224c15.786667 17.152 28.586667 32.64 41.514667 51.2 12.586667 17.962667 23.04 41.6 31.872 71.04l2.56 8.106667a36.949333 36.949333 0 0 1-24.704 46.634667 38.656 38.656 0 0 1-47.786667-24.96l-0.170667-0.426667c-7.04-24.832-14.762667-43.136-22.826666-54.698667a382.293333 382.293333 0 0 0-32.341334-40.234666l-5.333333-5.76-13.653333-14.592a361.429333 361.429333 0 0 1-15.957334-17.92c-18.218667-22.272-28.586667-43.946667-32-71.765334-6.485333-53.248 22.357333-102.272 67.498667-120.832 24.533333-10.069333 53.632-12.501333 80.042667-3.2 28.16 9.984 54.826667 41.813333 67.669333 73.898667z" fill="#000000"/>
</svg>
