<svg xmlns="http://www.w3.org/2000/svg" viewBox="0 0 1024 1024" fill="none">
  <path d="M692.396 722.484l-0.022-0.031c-6.111-8.751-4.467-20.737 3.789-27.501 56.615-46.385 89.907-115.976 89.907-189.68 0-74.82-34.098-145.075-92.073-191.446-8.332-6.663-10.098-18.633-4.089-27.449l0.023-0.034c6.674-9.792 20.299-11.944 29.556-4.546 67.696 54.104 107.515 136.119 107.515 223.475 0 85.958-38.791 167.117-104.769 221.236-9.254 7.59-22.985 5.789-29.837-4.024zM403.452 726.188z m405.497 167.737l-0.007-0.011c-6.68-8.668-5.374-21.088 3.02-28.11 107.68-90.082 169.039-220.953 169.039-362.068 0-141.946-61.949-273.312-170.66-363.422-8.424-6.983-9.781-19.396-3.142-28.095l0.007-0.009c7.048-9.232 20.38-10.771 29.308-3.343 53.985 44.912 98.836 101.073 130.433 163.53 36.486 72.124 54.986 149.958 54.986 231.339 0 80.978-18.325 158.464-54.466 230.307-31.279 62.18-75.704 118.188-129.198 163.096-8.896 7.466-22.233 5.985-29.32-3.214zM211.597 722.202H86.761c-44.647 0-80.841-36.194-80.841-80.841V369.183c0-44.647 36.194-80.841 80.841-80.841h128.93c11.304 0 10.233 9.163 10.233 20.466h10.233c0 11.303-9.163 20.466-20.466 20.466H86.761c-22.041 0-39.909 17.868-39.909 39.909v272.179c0 22.041 17.868 39.909 39.909 39.909l129.844-0.084c11.303 0 20.466 9.162 20.466 20.466l-13.194 0.084c0 11.303-0.976 20.465-12.28 20.465z m318.428 262.102a93.165 93.165 0 0 1-58.062-20.284l-0.277-0.225-265.273-245.953c-8.721-7.19-9.961-20.089-2.77-28.81 7.191-8.721 20.089-9.961 28.81-2.771l265.131 245.835c15.304 12.098 35.188 14.717 53.223 6.999 17.67-7.563 29.239-23.395 30.95-42.352 0.171-1.889 0.257-3.809 0.257-5.709v-773.06c0-0.624-0.009-1.246-0.026-1.866-0.578-19.778-11.798-36.533-30.015-44.82-18.73-8.521-39.346-5.86-55.144 7.118L231.498 324.658c-8.734 7.175-21.631 5.91-28.805-2.823l12.486-9.959c-7.174-8.733-17.958-11.501-9.224-18.676L470.847 46.778c27.721-22.773 65.303-27.657 98.074-12.748 32.268 14.678 52.951 45.67 53.979 80.881 0.03 1.017 0.046 2.039 0.046 3.063v773.061c0 3.127-0.143 6.287-0.423 9.391-3.086 34.193-23.875 62.718-55.612 76.301a93.683 93.683 0 0 1-36.886 7.577z" fill="#000000"/>
</svg>
