<svg xmlns="http://www.w3.org/2000/svg" viewBox="0 0 1024 1024" fill="none">
  <path d="M256 170.667a64 64 0 1 1-128 0 64 64 0 0 1 128 0zM576 170.667a64 64 0 1 1-128 0 64 64 0 0 1 128 0zM896 170.667a64 64 0 1 1-128 0 64 64 0 0 1 128 0zM256 512a64 64 0 1 1-128 0 64 64 0 0 1 128 0zM576 512a64 64 0 1 1-128 0 64 64 0 0 1 128 0zM896 512a64 64 0 1 1-128 0 64 64 0 0 1 128 0zM256 853.333a64 64 0 1 1-128 0 64 64 0 0 1 128 0zM576 853.333a64 64 0 1 1-128 0 64 64 0 0 1 128 0zM896 853.333a64 64 0 1 1-128 0 64 64 0 0 1 128 0z" fill="#000000"/>
</svg>
