<svg xmlns="http://www.w3.org/2000/svg" viewBox="0 0 1024 1024" fill="none">
  <path d="M936.3696638 543.85940313c-14.54188642 54.24546125-51.98271955 69.66227423-113.49912367 61.00351623-72.37756498-10.22759248-133.59226996-29.6871711-129.15729693-92.16901214 0 0 5.73227921-67.27885344-170.30902503-72.43790452-205.42677622-5.27973087-196.70767867 74.45928663-196.70767797 74.45928734-0.06034025 73.31283107-50.74575362 77.41593626-122.97246938 88.15641662-72.16637551 10.74048037-116.36526362-7.15026377-125.23521038-87.40216915-17.13649667-154.59051293 265.34417643-194.92765473 389.31225145-196.46631979 0 0 189.07469644-2.86613996 279.61453456 23.77387255l48.78471104 13.84797921c67.94259054 21.9636792 128.94610676 61.96895245 143.15612464 118.83919478 0 0 8.35705958 25.91593517-2.98681833 68.39513887z" fill="#000000"/>
</svg>
