<svg xmlns="http://www.w3.org/2000/svg" viewBox="0 0 1024 1024" fill="none">
  <path d="M384 469.333c94.257 0 170.667-76.41 170.667-170.666S478.257 128 384 128 213.333 204.41 213.333 298.667 289.743 469.333 384 469.333zM384 213.333a85.333 85.333 0 1 1 0 170.667 85.333 85.333 0 0 1 0-170.667zM640 512c70.693 0 128-57.307 128-128s-57.307-128-128-128c-12.629 0-24.832 1.835-36.352 5.248 7.595 25.088 8.79 51.797 3.115 77.568A42.667 42.667 0 1 1 640 426.667c-20.096 0-38.57-6.955-53.163-18.603-12.459 23.893-29.91 44.928-51.072 61.483C564.523 496.043 601.216 512 640 512zM384 554.667c-141.397 0-256 76.416-256 170.666V832h512V725.333c0-94.25-114.603-170.666-256-170.666zM213.333 746.667v-21.334C213.333 690.645 283.733 640 384 640s170.667 50.645 170.667 85.333v21.334H213.333zM680.363 554.923c57.472 30.635 87.637 75.434 87.637 127.744V832h128V704c0-76.864-88.235-139.776-200.363-149.077h-15.274z" fill="#000000"/>
</svg>
